
<svg xmlns="http://www.w3.org/2000/svg" version="1.0" width="941.000000pt" height="843.000000pt" viewBox="0 0 941.000000 843.000000" preserveAspectRatio="xMidYMid meet">

<g transform="translate(0.000000,843.000000) scale(0.100000,-0.100000)" fill="#000000" stroke="none">
<path d="M2620 6585 c-133 -21 -255 -61 -385 -124 -346 -170 -571 -454 -652 -823 -26 -122 -24 -398 4 -528 48 -222 135 -385 296 -556 l99 -104 -69 0 c-113 -1 -765 -28 -769 -33 -3 -2 85 -7 193 -11 109 -4 302 -11 428 -16 127 -5 1364 -10 2750 -10 2034 0 2591 3 2890 15 204 8 402 15 440 16 l70 2 -75 8 c-160 17 -712 29 -1293 29 l-608 0 3 783 c3 869 1 832 71 905 63 65 72 66 672 70 557 4 817 -5 985 -34 111 -18 245 -61 312 -99 131 -73 226 -256 272 -521 9 -48 17 -88 18 -90 2 -1 41 -4 88 -5 l85 -2 3 521 2 522 -1950 0 -1950 0 0 -65 c0 -55 3 -65 18 -65 69 -1 229 -23 291 -40 151 -42 246 -114 299 -228 l27 -57 3 -797 2 -798 -916 0 -916 0 -237 141 c-362 217 -501 317 -655 467 -131 129 -202 231 -252 364 -25 65 -28 86 -27 188 0 140 19 226 74 337 73 148 214 263 401 326 92 31 95 32 293 31 184 0 208 -2 300 -27 133 -36 317 -128 421 -211 279 -224 497 -566 596 -936 l21 -80 94 0 94 0 -5 33 c-3 17 -17 151 -31 297 -14 146 -45 472 -70 725 -25 253 -45 468 -45 477 0 16 -10 18 -82 18 l-83 0 -28 -60 c-51 -110 -127 -170 -215 -170 -41 0 -162 34 -413 115 -261 85 -436 115 -659 114 -80 -1 -183 -7 -230 -14z"/>
<path d="M1640 3770 c-96 -4 -251 -11 -345 -16 l-170 -8 135 -7 c368 -20 767 -29 1281 -29 l566 0 145 -93 c397 -257 499 -372 597 -677 41 -125 55 -224 48 -333 -14 -200 -78 -352 -210 -493 -187 -200 -404 -283 -707 -271 -351 14 -648 138 -905 378 -209 196 -409 508 -521 811 l-39 108 -82 0 c-72 0 -83 -2 -83 -17 0 -10 50 -364 110 -787 61 -423 110 -770 110 -772 0 -2 27 -4 60 -4 35 0 60 4 60 10 0 6 11 22 25 36 14 14 32 42 41 62 8 20 27 50 42 65 79 84 160 79 527 -27 371 -107 500 -133 705 -142 485 -23 918 133 1230 446 185 184 299 393 356 650 21 93 24 362 5 470 -35 204 -108 374 -231 538 l-32 42 416 0 416 0 -2 -797 -3 -798 -27 -57 c-68 -147 -238 -240 -461 -254 -45 -3 -97 -7 -114 -10 l-33 -5 0 -64 0 -65 1025 0 1026 0 -3 68 -3 67 -110 7 c-319 19 -499 139 -534 358 -7 41 -11 337 -11 808 l0 742 583 0 c332 0 737 7 942 15 198 8 383 15 410 16 117 2 6 9 -363 24 -329 13 -819 15 -3045 13 -1458 0 -2731 -4 -2827 -8z"/>
<path d="M1716 1585 c4 -8 8 -15 10 -15 2 0 4 7 4 15 0 8 -4 15 -10 15 -5 0 -7 -7 -4 -15z"/>
</g>
</svg>